<?xml version="1.0" encoding="UTF-8" standalone="no"?>
<svg xmlns="http://www.w3.org/2000/svg" xmlns:xlink="http://www.w3.org/1999/xlink" width="48" height="48" version="1.0">
  <defs>
    <linearGradient id="i">
      <stop offset="0" stop-color="#2e3436"/>
      <stop offset="1" stop-color="#2e3436" stop-opacity="0"/>
    </linearGradient>
    <linearGradient id="h">
      <stop offset="0" stop-color="#fff"/>
      <stop offset="1" stop-color="#fff" stop-opacity="0"/>
    </linearGradient>
    <linearGradient id="g">
      <stop offset="0" stop-color="#2e3436"/>
      <stop offset="1" stop-color="#555753"/>
    </linearGradient>
    <linearGradient id="f">
      <stop offset="0" stop-color="#888a85"/>
      <stop offset="1" stop-color="#555753"/>
    </linearGradient>
    <linearGradient id="e">
      <stop offset="0" stop-color="#204a87"/>
      <stop offset="1" stop-color="#3465a4"/>
    </linearGradient>
    <linearGradient id="d">
      <stop offset="0" stop-color="#729fcf"/>
      <stop offset="1" stop-color="#3465a4"/>
    </linearGradient>
    <linearGradient id="l">
      <stop offset="0"/>
      <stop offset="1" stop-opacity="0"/>
    </linearGradient>
    <linearGradient id="b">
      <stop offset="0" stop-color="#fff"/>
      <stop offset="1" stop-color="#fff" stop-opacity="0"/>
    </linearGradient>
    <linearGradient id="a">
      <stop offset="0" stop-opacity="0"/>
      <stop offset=".53662109"/>
      <stop offset=".81770831"/>
      <stop offset="1" stop-opacity="0"/>
    </linearGradient>
    <linearGradient id="j">
      <stop offset="0" stop-color="#b3ed7b"/>
      <stop offset="1" stop-color="#8ae234"/>
    </linearGradient>
    <linearGradient xlink:href="#a" id="p" x1="9.125" x2="40.0625" y1="39.125" y2="8.375" gradientUnits="userSpaceOnUse"/>
    <linearGradient xlink:href="#b" id="q" x1="9.5459414" x2="7.0710678" y1="37.039845" y2="43.934135" gradientUnits="userSpaceOnUse"/>
    <linearGradient id="c">
      <stop offset="0"/>
      <stop offset="1" stop-opacity="0"/>
    </linearGradient>
    <linearGradient id="k">
      <stop offset="0"/>
      <stop offset="1" stop-opacity="0"/>
    </linearGradient>
    <linearGradient xlink:href="#c" id="r" x1="18.1875" x2="32.9375" y1="18.53828" y2="18.392296" gradientTransform="matrix(1 0 0 .415 7.6735 26.32939)" gradientUnits="userSpaceOnUse"/>
    <linearGradient xlink:href="#d" id="s" x1="26.993084" x2="30.432114" y1="11.252465" y2="14.691495" gradientTransform="translate(7.51725 11.74708)" gradientUnits="userSpaceOnUse"/>
    <linearGradient xlink:href="#e" id="t" x1="29.03377" x2="25.991804" y1="14.298466" y2="11.2565" gradientTransform="translate(7.51725 11.74708)" gradientUnits="userSpaceOnUse"/>
    <linearGradient xlink:href="#f" id="u" x1="26.993084" x2="30.432114" y1="11.252465" y2="14.691495" gradientTransform="translate(7.51725 11.74708)" gradientUnits="userSpaceOnUse"/>
    <linearGradient xlink:href="#g" id="v" x1="29.03377" x2="25.991804" y1="14.298466" y2="11.2565" gradientTransform="translate(7.51725 11.74708)" gradientUnits="userSpaceOnUse"/>
    <linearGradient xlink:href="#h" id="w" x1="34.125694" x2="32.1875" y1="27.063194" y2="25" gradientUnits="userSpaceOnUse"/>
    <linearGradient xlink:href="#i" id="x" x1="43.65625" x2="41.65625" y1="17.6875" y2="16" gradientUnits="userSpaceOnUse"/>
    <radialGradient xlink:href="#j" id="o" cx="22.924673" cy="31.360638" r="21.726608" fx="22.924673" fy="31.360638" gradientTransform="matrix(1.19008 0 0 1.19608 -4.357565 -6.11794)" gradientUnits="userSpaceOnUse"/>
    <radialGradient xlink:href="#k" id="n" cx="37.375" cy="33.1875" r="14.625" fx="37.375" fy="33.1875" gradientTransform="matrix(1 0 0 .2265 0 25.67067)" gradientUnits="userSpaceOnUse"/>
    <radialGradient xlink:href="#l" id="m" cx="23.776466" cy="38.012115" r="22.715805" fx="23.776466" fy="38.012115" gradientTransform="matrix(1 0 0 .36187 0 24.25676)" gradientUnits="userSpaceOnUse"/>
  </defs>
  <path fill="url(#m)" d="M46.492271 38.012115a22.715805 8.2201166 0 1 1-45.4316097 0 22.715805 8.2201166 0 1 1 45.4316097 0z" color="#000" opacity=".3" overflow="visible" style="marker:none" transform="matrix(.93385 0 0 1.22972 1.837928 -9.538357)"/>
  <path fill="url(#n)" d="M52 33.1875a14.625 3.3125 0 1 1-29.25 0 14.625 3.3125 0 1 1 29.25 0z" opacity=".07000002" transform="matrix(.89744 0 0 .98113 1.45833 3.251171)"/>
  <path fill="url(#o)" fill-rule="evenodd" stroke="#4e9a06" stroke-linecap="round" stroke-linejoin="round" d="m2.4480655 44.504218 5.0908325-5.000223C-2.497353-1.0954397 26.71948 14.838084 44.901281 3.8058258 29.898241 17.722637 58.640001 48.870257 9.482522 41.502155l-4.9336629 4.976017-2.1007936-1.973954z"/>
  <path fill="none" stroke="url(#p)" stroke-linecap="round" d="M8.8125 40.1875c12.342874-26.157126 23.273126-18.476874 31.75-32.7500001" opacity=".1"/>
  <rect width="5" height="1" x="32.171875" y="17" opacity=".33599997" rx=".5" ry=".5"/>
  <rect width="2.125" height="1" x="9.046875" y="19" opacity=".33599997" rx=".5" ry=".5"/>
  <rect width="8.390625" height="1" x="9.78125" y="22" opacity=".33599997" rx=".5" ry=".5"/>
  <rect width="3.515625" height="1" x="8.65625" y="25" opacity=".33599997" rx=".49520382" ry=".5"/>
  <rect width="3" height="1" x="22.171875" y="35" opacity=".33599997" rx=".5" ry=".5"/>
  <rect width="5" height="1" x="31.171875" y="22" opacity=".33599997" rx=".54237288" ry=".5"/>
  <rect width="2.640625" height="1" x="9.53125" y="28" opacity=".33599997" rx=".5" ry=".5"/>
  <rect width="6" height="1" x="10.171875" y="17" opacity=".33599997" rx=".5" ry=".5"/>
  <rect width="2" height="1" x="31.171875" y="19" opacity=".33599997" rx=".5" ry=".5"/>
  <rect width="2" height="1" x="17.171875" y="17" opacity=".33599997" rx=".5" ry=".5"/>
  <rect width="2" height="1" x="20.171875" y="17" opacity=".33599997" rx=".5" ry=".5"/>
  <rect width="4" height="1" x="12.171875" y="19" opacity=".33599997" rx=".54237288" ry=".5"/>
  <rect width="4" height="1" x="17.171875" y="19" opacity=".33599997" rx=".54237288" ry=".5"/>
  <rect width="2" height="1" x="24.171875" y="22" opacity=".33599997" rx=".54237288" ry=".5"/>
  <rect width="3" height="1" x="27.171875" y="22" opacity=".33599997" rx=".54237288" ry=".5"/>
  <rect width="2" height="1" x="13.171875" y="25" opacity=".33599997" rx=".54237288" ry=".5"/>
  <rect width="4" height="1" x="21.171875" y="25" opacity=".33599997" rx=".54237288" ry=".5"/>
  <rect width="2" height="1" x="26.171875" y="25" opacity=".33599997" rx=".54237288" ry=".5"/>
  <rect width="2" height="1" x="29.171875" y="25" opacity=".33599997" rx=".54237288" ry=".5"/>
  <rect width="2" height="1" x="13.171875" y="28" opacity=".33599997" rx=".54237288" ry=".5"/>
  <rect width="4" height="1" x="23.171875" y="27" opacity=".33599997" rx=".54237288" ry=".5"/>
  <rect width="2" height="1" x="28.171875" y="27" opacity=".33599997" rx=".54237288" ry=".5"/>
  <rect width="6" height="1" x="14.171875" y="35" opacity=".33599997" rx=".54237288" ry=".5"/>
  <rect width="5" height="1" x="17.171875" y="32" opacity=".33599997" rx=".54237288" ry=".5"/>
  <rect width="4" height="1" x="23.171875" y="32" opacity=".33599997" rx=".54237288" ry=".5"/>
  <rect width="4" height="1" x="29.17972" y="32.004311" opacity=".33599997" rx=".54237288" ry=".5"/>
  <rect width="2.640625" height="1" x="20.53125" y="14" opacity=".33599997" rx=".5" ry=".5"/>
  <rect width="2" height="1" x="24.171875" y="14" opacity=".33599997" rx=".54237288" ry=".5"/>
  <rect width="4" height="1" x="26.171875" y="14" opacity=".33599997" rx=".54237288" ry=".5"/>
  <rect width="2" height="1" x="24.171875" y="12" opacity=".33599997" rx=".54237288" ry=".5"/>
  <path fill="none" stroke="url(#q)" d="M41.375 6.6875c-8.681066 3.467957-18.563946 2.837498-25.4375 4.875-3.987766 1.182078-6.8822075 3.096284-8.375 7.15625-1.4927925 4.059966-1.5157538 10.48074.96875 20.53125.0900556.359621-.0169387.740045-.28125 1l-4.28125 4.21875.5625.53125 4.1875-4.25c.239752-.233235.5765755-.337766.90625-.28125 12.197321 1.828228 19.448117 1.190226 23.5625-.75s5.379249-5.066819 5.78125-9.1875c.402001-4.120681-.252382-9.084694-.0625-13.96875.133063-3.422585.756932-6.842735 2.46875-9.875z" opacity=".4"/>
  <path fill="url(#r)" fill-rule="evenodd" d="m42.20475 28.02833-15 4.472913-.125.064845-.09375.077814-2.75 2.853178 7.4375-.842984.28125-.025938.1875-.077814 10.0625-2.683193V28.02833z" opacity=".33529412"/>
  <path fill="url(#s)" fill-rule="evenodd" stroke="url(#t)" d="m27.01725 29.74708 17-17c2.175049.359961 3.084719 1.732225 3.5 3.5l-17 17-3.375-.40625-.125-3.09375z"/>
  <path fill="url(#u)" fill-rule="evenodd" stroke="url(#v)" stroke-linejoin="round" d="m44.53125 19.25 3-3c-.415281-1.767775-1.324951-3.140039-3.5-3.5l-3 3c2.175049.359961 3.084719 1.732225 3.5 3.5z"/>
  <path fill="none" stroke="url(#w)" stroke-width="1.0000006" d="m27.917248 30.24708 16.49775-16.397748c1.089745.178435 1.517261.987944 2 2L30.01725 32.347082l-3.300003.900001 1.200001-3.000003z" opacity=".28235294"/>
  <path fill="#fef7bd" fill-rule="evenodd" d="m25.86358 34.023641 1.59781-4.008434s1.150216.235272 1.852735.934998c.702519.699726.957342 1.863907.957342 1.863907l-4.407887 1.209529z"/>
  <path fill="none" stroke="#c17d11" stroke-linecap="round" d="m30.51725 33.24708-5.5 1.5 2-5"/>
  <path fill-rule="evenodd" d="m25.07975 33.24708-.90625 2.25 2.34375-.65625c.00202-.031837 0-.061406 0-.09375 0-.802125-.645308-1.459801-1.4375-1.5z"/>
  <path fill="none" stroke="#eeeeec" stroke-linecap="round" d="M41.70475 15.09083c2.175049.359961 3.084719 1.732225 3.5 3.5"/>
  <path fill="none" stroke="url(#x)" stroke-linecap="round" d="M41.03125 15.75c2.175049.359961 3.084719 1.732225 3.5 3.5"/>
  <rect width="2.640625" height="1" x="26.53125" y="12" opacity=".33599997" rx=".5" ry=".5"/>
</svg>